<svg aria-roledescription="er" viewBox="0 0 755.0625 708" style="max-width: 755.062px; background-color: white;" xmlns:xlink="http://www.w3.org/1999/xlink" xmlns="http://www.w3.org/2000/svg" width="100%" id="mermaid-0"><style>#mermaid-0{font-family:"trebuchet ms",verdana,arial,sans-serif;font-size:16px;fill:#000000;}#mermaid-0 .error-icon{fill:#552222;}#mermaid-0 .error-text{fill:#552222;stroke:#552222;}#mermaid-0 .edge-thickness-normal{stroke-width:2px;}#mermaid-0 .edge-thickness-thick{stroke-width:3.5px;}#mermaid-0 .edge-pattern-solid{stroke-dasharray:0;}#mermaid-0 .edge-pattern-dashed{stroke-dasharray:3;}#mermaid-0 .edge-pattern-dotted{stroke-dasharray:2;}#mermaid-0 .marker{fill:#000000;stroke:#000000;}#mermaid-0 .marker.cross{stroke:#000000;}#mermaid-0 svg{font-family:"trebuchet ms",verdana,arial,sans-serif;font-size:16px;}#mermaid-0 .entityBox{fill:#cde498;stroke:#13540c;}#mermaid-0 .attributeBoxOdd{fill:#ffffff;stroke:#13540c;}#mermaid-0 .attributeBoxEven{fill:#f2f2f2;stroke:#13540c;}#mermaid-0 .relationshipLabelBox{fill:hsl(78.1578947368, 58.4615384615%, 84.5098039216%);opacity:0.7;background-color:hsl(78.1578947368, 58.4615384615%, 84.5098039216%);}#mermaid-0 .relationshipLabelBox rect{opacity:0.5;}#mermaid-0 .relationshipLine{stroke:#000000;}#mermaid-0 .entityTitleText{text-anchor:middle;font-size:18px;fill:#000000;}#mermaid-0 :root{--mermaid-font-family:"trebuchet ms",verdana,arial,sans-serif;}</style><g/><defs><marker orient="auto" markerHeight="18" markerWidth="18" refY="9" refX="0" id="ONLY_ONE_START"><path d="M9,0 L9,18 M15,0 L15,18" fill="none" stroke="gray"/></marker></defs><defs><marker orient="auto" markerHeight="18" markerWidth="18" refY="9" refX="18" id="ONLY_ONE_END"><path d="M3,0 L3,18 M9,0 L9,18" fill="none" stroke="gray"/></marker></defs><defs><marker orient="auto" markerHeight="18" markerWidth="30" refY="9" refX="0" id="ZERO_OR_ONE_START"><circle r="6" cy="9" cx="21" fill="white" stroke="gray"/><path d="M9,0 L9,18" fill="none" stroke="gray"/></marker></defs><defs><marker orient="auto" markerHeight="18" markerWidth="30" refY="9" refX="30" id="ZERO_OR_ONE_END"><circle r="6" cy="9" cx="9" fill="white" stroke="gray"/><path d="M21,0 L21,18" fill="none" stroke="gray"/></marker></defs><defs><marker orient="auto" markerHeight="36" markerWidth="45" refY="18" refX="18" id="ONE_OR_MORE_START"><path d="M0,18 Q 18,0 36,18 Q 18,36 0,18 M42,9 L42,27" fill="none" stroke="gray"/></marker></defs><defs><marker orient="auto" markerHeight="36" markerWidth="45" refY="18" refX="27" id="ONE_OR_MORE_END"><path d="M3,9 L3,27 M9,18 Q27,0 45,18 Q27,36 9,18" fill="none" stroke="gray"/></marker></defs><defs><marker orient="auto" markerHeight="36" markerWidth="57" refY="18" refX="18" id="ZERO_OR_MORE_START"><circle r="6" cy="18" cx="48" fill="white" stroke="gray"/><path d="M0,18 Q18,0 36,18 Q18,36 0,18" fill="none" stroke="gray"/></marker></defs><defs><marker orient="auto" markerHeight="36" markerWidth="57" refY="18" refX="39" id="ZERO_OR_MORE_END"><circle r="6" cy="18" cx="9" fill="white" stroke="gray"/><path d="M21,18 Q39,0 57,18 Q39,36 21,18" fill="none" stroke="gray"/></marker></defs><path style="stroke: gray; fill: none;" marker-start="url(#ZERO_OR_MORE_START)" marker-end="url(#ONLY_ONE_END)" d="M136.4375,456.8641975308642L128.10416666666666,468.38683127572017C119.77083333333333,479.90946502057614,103.10416666666667,502.95473251028807,94.77083333333333,522.8106995884774C86.4375,542.6666666666666,86.4375,559.3333333333334,86.4375,567.6666666666666L86.4375,576" class="er relationshipLine"/><path style="stroke: gray; fill: none;" marker-start="url(#ZERO_OR_MORE_START)" marker-end="url(#ONLY_ONE_END)" d="M269.3125,456.8641975308642L277.6458333333333,468.38683127572017C285.9791666666667,479.90946502057614,302.6458333333333,502.95473251028807,310.9791666666667,522.8106995884774C319.3125,542.6666666666666,319.3125,559.3333333333334,319.3125,567.6666666666666L319.3125,576" class="er relationshipLine"/><path style="stroke: gray; fill: none;" marker-start="url(#ZERO_OR_MORE_START)" marker-end="url(#ONLY_ONE_END)" d="M367.64453125,121.21724033816426L340.1829427083333,135.0143669484702C312.7213541666667,148.81149355877616,257.7981770833333,176.4057467793881,230.33658854166666,198.53620672302736C202.875,220.66666666666666,202.875,237.33333333333334,202.875,245.66666666666666L202.875,254" class="er relationshipLine"/><path style="stroke: gray; fill: none;" marker-start="url(#ZERO_OR_MORE_START)" marker-end="url(#ONLY_ONE_END)" d="M397.704594017094,154L392.9725783475783,162.33333333333334C388.24056267806264,170.66666666666666,378.77653133903135,187.33333333333334,381.26598306082,213.16666666666666C383.7554347826087,239,398.1983695652173,274,405.41983695652175,291.5L412.64130434782606,309" class="er relationshipLine"/><path style="stroke: gray; fill: none;" marker-start="url(#ZERO_OR_MORE_START)" marker-end="url(#ONLY_ONE_END)" d="M473.795405982906,154L478.5274216524217,162.33333333333334C483.25943732193736,170.66666666666666,492.72346866096865,187.33333333333334,490.23401693918004,213.16666666666666C487.7445652173913,239,473.3016304347827,274,466.0801630434783,291.5L458.85869565217394,309" class="er relationshipLine"/><path style="stroke: gray; fill: none;" marker-start="url(#ZERO_OR_MORE_START)" marker-end="url(#ONLY_ONE_END)" d="M503.85546875,121.21724033816426L531.3170572916666,135.0143669484702C558.7786458333334,148.81149355877616,613.7018229166666,176.4057467793881,641.1634114583334,207.70287338969402C668.625,239,668.625,274,668.625,291.5L668.625,309" class="er relationshipLine"/><g transform="translate(136.4375,254 )" id="entity-Specialist-51eec529-0f9d-48e3-b1d6-6e6f4c7cde45"><rect height="222" width="132.875" y="0" x="0" class="er entityBox"/><text style="dominant-baseline: middle; text-anchor: middle; font-size: 12px;" transform="translate(66.4375,12)" y="0" x="0" id="text-entity-Specialist-51eec529-0f9d-48e3-b1d6-6e6f4c7cde45" class="er entityLabel">Specialist</text><rect height="22" width="53.6640625" y="24" x="0" class="er attributeBoxOdd"/><text style="dominant-baseline: middle; font-size: 10.2px;" transform="translate(5,35)" y="0" x="0" id="text-entity-Specialist-51eec529-0f9d-48e3-b1d6-6e6f4c7cde45-attr-1-type" class="er entityLabel">Int</text><rect height="22" width="57.6484375" y="24" x="53.6640625" class="er attributeBoxOdd"/><text style="dominant-baseline: middle; font-size: 10.2px;" transform="translate(58.6640625,35)" y="0" x="0" id="text-entity-Specialist-51eec529-0f9d-48e3-b1d6-6e6f4c7cde45-attr-1-name" class="er entityLabel">id</text><rect height="22" width="21.5625" y="24" x="111.3125" class="er attributeBoxOdd"/><text style="dominant-baseline: middle; font-size: 10.2px;" transform="translate(116.3125,35)" y="0" x="0" id="text-entity-Specialist-51eec529-0f9d-48e3-b1d6-6e6f4c7cde45-attr-1-key" class="er entityLabel">PK</text><rect height="22" width="53.6640625" y="46" x="0" class="er attributeBoxEven"/><text style="dominant-baseline: middle; font-size: 10.2px;" transform="translate(5,57)" y="0" x="0" id="text-entity-Specialist-51eec529-0f9d-48e3-b1d6-6e6f4c7cde45-attr-2-type" class="er entityLabel">String</text><rect height="22" width="57.6484375" y="46" x="53.6640625" class="er attributeBoxEven"/><text style="dominant-baseline: middle; font-size: 10.2px;" transform="translate(58.6640625,57)" y="0" x="0" id="text-entity-Specialist-51eec529-0f9d-48e3-b1d6-6e6f4c7cde45-attr-2-name" class="er entityLabel">name</text><rect height="22" width="21.5625" y="46" x="111.3125" class="er attributeBoxEven"/><text style="dominant-baseline: middle; font-size: 10.2px;" transform="translate(116.3125,57)" y="0" x="0" id="text-entity-Specialist-51eec529-0f9d-48e3-b1d6-6e6f4c7cde45-attr-2-key" class="er entityLabel"/><rect height="22" width="53.6640625" y="68" x="0" class="er attributeBoxOdd"/><text style="dominant-baseline: middle; font-size: 10.2px;" transform="translate(5,79)" y="0" x="0" id="text-entity-Specialist-51eec529-0f9d-48e3-b1d6-6e6f4c7cde45-attr-3-type" class="er entityLabel">String</text><rect height="22" width="57.6484375" y="68" x="53.6640625" class="er attributeBoxOdd"/><text style="dominant-baseline: middle; font-size: 10.2px;" transform="translate(58.6640625,79)" y="0" x="0" id="text-entity-Specialist-51eec529-0f9d-48e3-b1d6-6e6f4c7cde45-attr-3-name" class="er entityLabel">email</text><rect height="22" width="21.5625" y="68" x="111.3125" class="er attributeBoxOdd"/><text style="dominant-baseline: middle; font-size: 10.2px;" transform="translate(116.3125,79)" y="0" x="0" id="text-entity-Specialist-51eec529-0f9d-48e3-b1d6-6e6f4c7cde45-attr-3-key" class="er entityLabel"/><rect height="22" width="53.6640625" y="90" x="0" class="er attributeBoxEven"/><text style="dominant-baseline: middle; font-size: 10.2px;" transform="translate(5,101)" y="0" x="0" id="text-entity-Specialist-51eec529-0f9d-48e3-b1d6-6e6f4c7cde45-attr-4-type" class="er entityLabel">String</text><rect height="22" width="57.6484375" y="90" x="53.6640625" class="er attributeBoxEven"/><text style="dominant-baseline: middle; font-size: 10.2px;" transform="translate(58.6640625,101)" y="0" x="0" id="text-entity-Specialist-51eec529-0f9d-48e3-b1d6-6e6f4c7cde45-attr-4-name" class="er entityLabel">password</text><rect height="22" width="21.5625" y="90" x="111.3125" class="er attributeBoxEven"/><text style="dominant-baseline: middle; font-size: 10.2px;" transform="translate(116.3125,101)" y="0" x="0" id="text-entity-Specialist-51eec529-0f9d-48e3-b1d6-6e6f4c7cde45-attr-4-key" class="er entityLabel"/><rect height="22" width="53.6640625" y="112" x="0" class="er attributeBoxOdd"/><text style="dominant-baseline: middle; font-size: 10.2px;" transform="translate(5,123)" y="0" x="0" id="text-entity-Specialist-51eec529-0f9d-48e3-b1d6-6e6f4c7cde45-attr-5-type" class="er entityLabel">String</text><rect height="22" width="57.6484375" y="112" x="53.6640625" class="er attributeBoxOdd"/><text style="dominant-baseline: middle; font-size: 10.2px;" transform="translate(58.6640625,123)" y="0" x="0" id="text-entity-Specialist-51eec529-0f9d-48e3-b1d6-6e6f4c7cde45-attr-5-name" class="er entityLabel">cpf</text><rect height="22" width="21.5625" y="112" x="111.3125" class="er attributeBoxOdd"/><text style="dominant-baseline: middle; font-size: 10.2px;" transform="translate(116.3125,123)" y="0" x="0" id="text-entity-Specialist-51eec529-0f9d-48e3-b1d6-6e6f4c7cde45-attr-5-key" class="er entityLabel"/><rect height="22" width="53.6640625" y="134" x="0" class="er attributeBoxEven"/><text style="dominant-baseline: middle; font-size: 10.2px;" transform="translate(5,145)" y="0" x="0" id="text-entity-Specialist-51eec529-0f9d-48e3-b1d6-6e6f4c7cde45-attr-6-type" class="er entityLabel">String</text><rect height="22" width="57.6484375" y="134" x="53.6640625" class="er attributeBoxEven"/><text style="dominant-baseline: middle; font-size: 10.2px;" transform="translate(58.6640625,145)" y="0" x="0" id="text-entity-Specialist-51eec529-0f9d-48e3-b1d6-6e6f4c7cde45-attr-6-name" class="er entityLabel">mobile</text><rect height="22" width="21.5625" y="134" x="111.3125" class="er attributeBoxEven"/><text style="dominant-baseline: middle; font-size: 10.2px;" transform="translate(116.3125,145)" y="0" x="0" id="text-entity-Specialist-51eec529-0f9d-48e3-b1d6-6e6f4c7cde45-attr-6-key" class="er entityLabel"/><rect height="22" width="53.6640625" y="156" x="0" class="er attributeBoxOdd"/><text style="dominant-baseline: middle; font-size: 10.2px;" transform="translate(5,167)" y="0" x="0" id="text-entity-Specialist-51eec529-0f9d-48e3-b1d6-6e6f4c7cde45-attr-7-type" class="er entityLabel">String</text><rect height="22" width="57.6484375" y="156" x="53.6640625" class="er attributeBoxOdd"/><text style="dominant-baseline: middle; font-size: 10.2px;" transform="translate(58.6640625,167)" y="0" x="0" id="text-entity-Specialist-51eec529-0f9d-48e3-b1d6-6e6f4c7cde45-attr-7-name" class="er entityLabel">profession</text><rect height="22" width="21.5625" y="156" x="111.3125" class="er attributeBoxOdd"/><text style="dominant-baseline: middle; font-size: 10.2px;" transform="translate(116.3125,167)" y="0" x="0" id="text-entity-Specialist-51eec529-0f9d-48e3-b1d6-6e6f4c7cde45-attr-7-key" class="er entityLabel"/><rect height="22" width="53.6640625" y="178" x="0" class="er attributeBoxEven"/><text style="dominant-baseline: middle; font-size: 10.2px;" transform="translate(5,189)" y="0" x="0" id="text-entity-Specialist-51eec529-0f9d-48e3-b1d6-6e6f4c7cde45-attr-8-type" class="er entityLabel">DateTime</text><rect height="22" width="57.6484375" y="178" x="53.6640625" class="er attributeBoxEven"/><text style="dominant-baseline: middle; font-size: 10.2px;" transform="translate(58.6640625,189)" y="0" x="0" id="text-entity-Specialist-51eec529-0f9d-48e3-b1d6-6e6f4c7cde45-attr-8-name" class="er entityLabel">createdAt</text><rect height="22" width="21.5625" y="178" x="111.3125" class="er attributeBoxEven"/><text style="dominant-baseline: middle; font-size: 10.2px;" transform="translate(116.3125,189)" y="0" x="0" id="text-entity-Specialist-51eec529-0f9d-48e3-b1d6-6e6f4c7cde45-attr-8-key" class="er entityLabel"/><rect height="22" width="53.6640625" y="200" x="0" class="er attributeBoxOdd"/><text style="dominant-baseline: middle; font-size: 10.2px;" transform="translate(5,211)" y="0" x="0" id="text-entity-Specialist-51eec529-0f9d-48e3-b1d6-6e6f4c7cde45-attr-9-type" class="er entityLabel">DateTime</text><rect height="22" width="57.6484375" y="200" x="53.6640625" class="er attributeBoxOdd"/><text style="dominant-baseline: middle; font-size: 10.2px;" transform="translate(58.6640625,211)" y="0" x="0" id="text-entity-Specialist-51eec529-0f9d-48e3-b1d6-6e6f4c7cde45-attr-9-name" class="er entityLabel">updatedAt</text><rect height="22" width="21.5625" y="200" x="111.3125" class="er attributeBoxOdd"/><text style="dominant-baseline: middle; font-size: 10.2px;" transform="translate(116.3125,211)" y="0" x="0" id="text-entity-Specialist-51eec529-0f9d-48e3-b1d6-6e6f4c7cde45-attr-9-key" class="er entityLabel"/></g><g transform="translate(20,576 )" id="entity-FieldOfWork-5ec9d29b-0fcd-4469-b5bc-902682682bd5"><rect height="112" width="132.875" y="0" x="0" class="er entityBox"/><text style="dominant-baseline: middle; text-anchor: middle; font-size: 12px;" transform="translate(66.4375,12)" y="0" x="0" id="text-entity-FieldOfWork-5ec9d29b-0fcd-4469-b5bc-902682682bd5" class="er entityLabel">FieldOfWork</text><rect height="22" width="53.6640625" y="24" x="0" class="er attributeBoxOdd"/><text style="dominant-baseline: middle; font-size: 10.2px;" transform="translate(5,35)" y="0" x="0" id="text-entity-FieldOfWork-5ec9d29b-0fcd-4469-b5bc-902682682bd5-attr-1-type" class="er entityLabel">Int</text><rect height="22" width="57.6484375" y="24" x="53.6640625" class="er attributeBoxOdd"/><text style="dominant-baseline: middle; font-size: 10.2px;" transform="translate(58.6640625,35)" y="0" x="0" id="text-entity-FieldOfWork-5ec9d29b-0fcd-4469-b5bc-902682682bd5-attr-1-name" class="er entityLabel">id</text><rect height="22" width="21.5625" y="24" x="111.3125" class="er attributeBoxOdd"/><text style="dominant-baseline: middle; font-size: 10.2px;" transform="translate(116.3125,35)" y="0" x="0" id="text-entity-FieldOfWork-5ec9d29b-0fcd-4469-b5bc-902682682bd5-attr-1-key" class="er entityLabel">PK</text><rect height="22" width="53.6640625" y="46" x="0" class="er attributeBoxEven"/><text style="dominant-baseline: middle; font-size: 10.2px;" transform="translate(5,57)" y="0" x="0" id="text-entity-FieldOfWork-5ec9d29b-0fcd-4469-b5bc-902682682bd5-attr-2-type" class="er entityLabel">String</text><rect height="22" width="57.6484375" y="46" x="53.6640625" class="er attributeBoxEven"/><text style="dominant-baseline: middle; font-size: 10.2px;" transform="translate(58.6640625,57)" y="0" x="0" id="text-entity-FieldOfWork-5ec9d29b-0fcd-4469-b5bc-902682682bd5-attr-2-name" class="er entityLabel">name</text><rect height="22" width="21.5625" y="46" x="111.3125" class="er attributeBoxEven"/><text style="dominant-baseline: middle; font-size: 10.2px;" transform="translate(116.3125,57)" y="0" x="0" id="text-entity-FieldOfWork-5ec9d29b-0fcd-4469-b5bc-902682682bd5-attr-2-key" class="er entityLabel"/><rect height="22" width="53.6640625" y="68" x="0" class="er attributeBoxOdd"/><text style="dominant-baseline: middle; font-size: 10.2px;" transform="translate(5,79)" y="0" x="0" id="text-entity-FieldOfWork-5ec9d29b-0fcd-4469-b5bc-902682682bd5-attr-3-type" class="er entityLabel">DateTime</text><rect height="22" width="57.6484375" y="68" x="53.6640625" class="er attributeBoxOdd"/><text style="dominant-baseline: middle; font-size: 10.2px;" transform="translate(58.6640625,79)" y="0" x="0" id="text-entity-FieldOfWork-5ec9d29b-0fcd-4469-b5bc-902682682bd5-attr-3-name" class="er entityLabel">createdAt</text><rect height="22" width="21.5625" y="68" x="111.3125" class="er attributeBoxOdd"/><text style="dominant-baseline: middle; font-size: 10.2px;" transform="translate(116.3125,79)" y="0" x="0" id="text-entity-FieldOfWork-5ec9d29b-0fcd-4469-b5bc-902682682bd5-attr-3-key" class="er entityLabel"/><rect height="22" width="53.6640625" y="90" x="0" class="er attributeBoxEven"/><text style="dominant-baseline: middle; font-size: 10.2px;" transform="translate(5,101)" y="0" x="0" id="text-entity-FieldOfWork-5ec9d29b-0fcd-4469-b5bc-902682682bd5-attr-4-type" class="er entityLabel">DateTime</text><rect height="22" width="57.6484375" y="90" x="53.6640625" class="er attributeBoxEven"/><text style="dominant-baseline: middle; font-size: 10.2px;" transform="translate(58.6640625,101)" y="0" x="0" id="text-entity-FieldOfWork-5ec9d29b-0fcd-4469-b5bc-902682682bd5-attr-4-name" class="er entityLabel">updatedAt</text><rect height="22" width="21.5625" y="90" x="111.3125" class="er attributeBoxEven"/><text style="dominant-baseline: middle; font-size: 10.2px;" transform="translate(116.3125,101)" y="0" x="0" id="text-entity-FieldOfWork-5ec9d29b-0fcd-4469-b5bc-902682682bd5-attr-4-key" class="er entityLabel"/></g><g transform="translate(252.875,576 )" id="entity-Education-c8c6017a-cf60-4587-83ab-3f3ab047fa74"><rect height="112" width="132.875" y="0" x="0" class="er entityBox"/><text style="dominant-baseline: middle; text-anchor: middle; font-size: 12px;" transform="translate(66.4375,12)" y="0" x="0" id="text-entity-Education-c8c6017a-cf60-4587-83ab-3f3ab047fa74" class="er entityLabel">Education</text><rect height="22" width="53.6640625" y="24" x="0" class="er attributeBoxOdd"/><text style="dominant-baseline: middle; font-size: 10.2px;" transform="translate(5,35)" y="0" x="0" id="text-entity-Education-c8c6017a-cf60-4587-83ab-3f3ab047fa74-attr-1-type" class="er entityLabel">Int</text><rect height="22" width="57.6484375" y="24" x="53.6640625" class="er attributeBoxOdd"/><text style="dominant-baseline: middle; font-size: 10.2px;" transform="translate(58.6640625,35)" y="0" x="0" id="text-entity-Education-c8c6017a-cf60-4587-83ab-3f3ab047fa74-attr-1-name" class="er entityLabel">id</text><rect height="22" width="21.5625" y="24" x="111.3125" class="er attributeBoxOdd"/><text style="dominant-baseline: middle; font-size: 10.2px;" transform="translate(116.3125,35)" y="0" x="0" id="text-entity-Education-c8c6017a-cf60-4587-83ab-3f3ab047fa74-attr-1-key" class="er entityLabel">PK</text><rect height="22" width="53.6640625" y="46" x="0" class="er attributeBoxEven"/><text style="dominant-baseline: middle; font-size: 10.2px;" transform="translate(5,57)" y="0" x="0" id="text-entity-Education-c8c6017a-cf60-4587-83ab-3f3ab047fa74-attr-2-type" class="er entityLabel">String</text><rect height="22" width="57.6484375" y="46" x="53.6640625" class="er attributeBoxEven"/><text style="dominant-baseline: middle; font-size: 10.2px;" transform="translate(58.6640625,57)" y="0" x="0" id="text-entity-Education-c8c6017a-cf60-4587-83ab-3f3ab047fa74-attr-2-name" class="er entityLabel">name</text><rect height="22" width="21.5625" y="46" x="111.3125" class="er attributeBoxEven"/><text style="dominant-baseline: middle; font-size: 10.2px;" transform="translate(116.3125,57)" y="0" x="0" id="text-entity-Education-c8c6017a-cf60-4587-83ab-3f3ab047fa74-attr-2-key" class="er entityLabel"/><rect height="22" width="53.6640625" y="68" x="0" class="er attributeBoxOdd"/><text style="dominant-baseline: middle; font-size: 10.2px;" transform="translate(5,79)" y="0" x="0" id="text-entity-Education-c8c6017a-cf60-4587-83ab-3f3ab047fa74-attr-3-type" class="er entityLabel">DateTime</text><rect height="22" width="57.6484375" y="68" x="53.6640625" class="er attributeBoxOdd"/><text style="dominant-baseline: middle; font-size: 10.2px;" transform="translate(58.6640625,79)" y="0" x="0" id="text-entity-Education-c8c6017a-cf60-4587-83ab-3f3ab047fa74-attr-3-name" class="er entityLabel">createdAt</text><rect height="22" width="21.5625" y="68" x="111.3125" class="er attributeBoxOdd"/><text style="dominant-baseline: middle; font-size: 10.2px;" transform="translate(116.3125,79)" y="0" x="0" id="text-entity-Education-c8c6017a-cf60-4587-83ab-3f3ab047fa74-attr-3-key" class="er entityLabel"/><rect height="22" width="53.6640625" y="90" x="0" class="er attributeBoxEven"/><text style="dominant-baseline: middle; font-size: 10.2px;" transform="translate(5,101)" y="0" x="0" id="text-entity-Education-c8c6017a-cf60-4587-83ab-3f3ab047fa74-attr-4-type" class="er entityLabel">DateTime</text><rect height="22" width="57.6484375" y="90" x="53.6640625" class="er attributeBoxEven"/><text style="dominant-baseline: middle; font-size: 10.2px;" transform="translate(58.6640625,101)" y="0" x="0" id="text-entity-Education-c8c6017a-cf60-4587-83ab-3f3ab047fa74-attr-4-name" class="er entityLabel">updatedAt</text><rect height="22" width="21.5625" y="90" x="111.3125" class="er attributeBoxEven"/><text style="dominant-baseline: middle; font-size: 10.2px;" transform="translate(116.3125,101)" y="0" x="0" id="text-entity-Education-c8c6017a-cf60-4587-83ab-3f3ab047fa74-attr-4-key" class="er entityLabel"/></g><g transform="translate(369.3125,309 )" id="entity-Substance-d31f4579-4217-4950-a08e-ed6e45782599"><rect height="112" width="132.875" y="0" x="0" class="er entityBox"/><text style="dominant-baseline: middle; text-anchor: middle; font-size: 12px;" transform="translate(66.4375,12)" y="0" x="0" id="text-entity-Substance-d31f4579-4217-4950-a08e-ed6e45782599" class="er entityLabel">Substance</text><rect height="22" width="53.6640625" y="24" x="0" class="er attributeBoxOdd"/><text style="dominant-baseline: middle; font-size: 10.2px;" transform="translate(5,35)" y="0" x="0" id="text-entity-Substance-d31f4579-4217-4950-a08e-ed6e45782599-attr-1-type" class="er entityLabel">Int</text><rect height="22" width="57.6484375" y="24" x="53.6640625" class="er attributeBoxOdd"/><text style="dominant-baseline: middle; font-size: 10.2px;" transform="translate(58.6640625,35)" y="0" x="0" id="text-entity-Substance-d31f4579-4217-4950-a08e-ed6e45782599-attr-1-name" class="er entityLabel">id</text><rect height="22" width="21.5625" y="24" x="111.3125" class="er attributeBoxOdd"/><text style="dominant-baseline: middle; font-size: 10.2px;" transform="translate(116.3125,35)" y="0" x="0" id="text-entity-Substance-d31f4579-4217-4950-a08e-ed6e45782599-attr-1-key" class="er entityLabel">PK</text><rect height="22" width="53.6640625" y="46" x="0" class="er attributeBoxEven"/><text style="dominant-baseline: middle; font-size: 10.2px;" transform="translate(5,57)" y="0" x="0" id="text-entity-Substance-d31f4579-4217-4950-a08e-ed6e45782599-attr-2-type" class="er entityLabel">String</text><rect height="22" width="57.6484375" y="46" x="53.6640625" class="er attributeBoxEven"/><text style="dominant-baseline: middle; font-size: 10.2px;" transform="translate(58.6640625,57)" y="0" x="0" id="text-entity-Substance-d31f4579-4217-4950-a08e-ed6e45782599-attr-2-name" class="er entityLabel">name</text><rect height="22" width="21.5625" y="46" x="111.3125" class="er attributeBoxEven"/><text style="dominant-baseline: middle; font-size: 10.2px;" transform="translate(116.3125,57)" y="0" x="0" id="text-entity-Substance-d31f4579-4217-4950-a08e-ed6e45782599-attr-2-key" class="er entityLabel"/><rect height="22" width="53.6640625" y="68" x="0" class="er attributeBoxOdd"/><text style="dominant-baseline: middle; font-size: 10.2px;" transform="translate(5,79)" y="0" x="0" id="text-entity-Substance-d31f4579-4217-4950-a08e-ed6e45782599-attr-3-type" class="er entityLabel">DateTime</text><rect height="22" width="57.6484375" y="68" x="53.6640625" class="er attributeBoxOdd"/><text style="dominant-baseline: middle; font-size: 10.2px;" transform="translate(58.6640625,79)" y="0" x="0" id="text-entity-Substance-d31f4579-4217-4950-a08e-ed6e45782599-attr-3-name" class="er entityLabel">createdAt</text><rect height="22" width="21.5625" y="68" x="111.3125" class="er attributeBoxOdd"/><text style="dominant-baseline: middle; font-size: 10.2px;" transform="translate(116.3125,79)" y="0" x="0" id="text-entity-Substance-d31f4579-4217-4950-a08e-ed6e45782599-attr-3-key" class="er entityLabel"/><rect height="22" width="53.6640625" y="90" x="0" class="er attributeBoxEven"/><text style="dominant-baseline: middle; font-size: 10.2px;" transform="translate(5,101)" y="0" x="0" id="text-entity-Substance-d31f4579-4217-4950-a08e-ed6e45782599-attr-4-type" class="er entityLabel">DateTime</text><rect height="22" width="57.6484375" y="90" x="53.6640625" class="er attributeBoxEven"/><text style="dominant-baseline: middle; font-size: 10.2px;" transform="translate(58.6640625,101)" y="0" x="0" id="text-entity-Substance-d31f4579-4217-4950-a08e-ed6e45782599-attr-4-name" class="er entityLabel">updatedAt</text><rect height="22" width="21.5625" y="90" x="111.3125" class="er attributeBoxEven"/><text style="dominant-baseline: middle; font-size: 10.2px;" transform="translate(116.3125,101)" y="0" x="0" id="text-entity-Substance-d31f4579-4217-4950-a08e-ed6e45782599-attr-4-key" class="er entityLabel"/></g><g transform="translate(367.64453125,20 )" id="entity-Post-ba0c2052-3a92-402d-8dd1-1cee4afc4793"><rect height="134" width="136.2109375" y="0" x="0" class="er entityBox"/><text style="dominant-baseline: middle; text-anchor: middle; font-size: 12px;" transform="translate(68.10546875,12)" y="0" x="0" id="text-entity-Post-ba0c2052-3a92-402d-8dd1-1cee4afc4793" class="er entityLabel">Post</text><rect height="22" width="53.6640625" y="24" x="0" class="er attributeBoxOdd"/><text style="dominant-baseline: middle; font-size: 10.2px;" transform="translate(5,35)" y="0" x="0" id="text-entity-Post-ba0c2052-3a92-402d-8dd1-1cee4afc4793-attr-1-type" class="er entityLabel">Int</text><rect height="22" width="60.984375" y="24" x="53.6640625" class="er attributeBoxOdd"/><text style="dominant-baseline: middle; font-size: 10.2px;" transform="translate(58.6640625,35)" y="0" x="0" id="text-entity-Post-ba0c2052-3a92-402d-8dd1-1cee4afc4793-attr-1-name" class="er entityLabel">id</text><rect height="22" width="21.5625" y="24" x="114.6484375" class="er attributeBoxOdd"/><text style="dominant-baseline: middle; font-size: 10.2px;" transform="translate(119.6484375,35)" y="0" x="0" id="text-entity-Post-ba0c2052-3a92-402d-8dd1-1cee4afc4793-attr-1-key" class="er entityLabel">PK</text><rect height="22" width="53.6640625" y="46" x="0" class="er attributeBoxEven"/><text style="dominant-baseline: middle; font-size: 10.2px;" transform="translate(5,57)" y="0" x="0" id="text-entity-Post-ba0c2052-3a92-402d-8dd1-1cee4afc4793-attr-2-type" class="er entityLabel">String</text><rect height="22" width="60.984375" y="46" x="53.6640625" class="er attributeBoxEven"/><text style="dominant-baseline: middle; font-size: 10.2px;" transform="translate(58.6640625,57)" y="0" x="0" id="text-entity-Post-ba0c2052-3a92-402d-8dd1-1cee4afc4793-attr-2-name" class="er entityLabel">description</text><rect height="22" width="21.5625" y="46" x="114.6484375" class="er attributeBoxEven"/><text style="dominant-baseline: middle; font-size: 10.2px;" transform="translate(119.6484375,57)" y="0" x="0" id="text-entity-Post-ba0c2052-3a92-402d-8dd1-1cee4afc4793-attr-2-key" class="er entityLabel"/><rect height="22" width="53.6640625" y="68" x="0" class="er attributeBoxOdd"/><text style="dominant-baseline: middle; font-size: 10.2px;" transform="translate(5,79)" y="0" x="0" id="text-entity-Post-ba0c2052-3a92-402d-8dd1-1cee4afc4793-attr-3-type" class="er entityLabel">String</text><rect height="22" width="60.984375" y="68" x="53.6640625" class="er attributeBoxOdd"/><text style="dominant-baseline: middle; font-size: 10.2px;" transform="translate(58.6640625,79)" y="0" x="0" id="text-entity-Post-ba0c2052-3a92-402d-8dd1-1cee4afc4793-attr-3-name" class="er entityLabel">content</text><rect height="22" width="21.5625" y="68" x="114.6484375" class="er attributeBoxOdd"/><text style="dominant-baseline: middle; font-size: 10.2px;" transform="translate(119.6484375,79)" y="0" x="0" id="text-entity-Post-ba0c2052-3a92-402d-8dd1-1cee4afc4793-attr-3-key" class="er entityLabel"/><rect height="22" width="53.6640625" y="90" x="0" class="er attributeBoxEven"/><text style="dominant-baseline: middle; font-size: 10.2px;" transform="translate(5,101)" y="0" x="0" id="text-entity-Post-ba0c2052-3a92-402d-8dd1-1cee4afc4793-attr-4-type" class="er entityLabel">DateTime</text><rect height="22" width="60.984375" y="90" x="53.6640625" class="er attributeBoxEven"/><text style="dominant-baseline: middle; font-size: 10.2px;" transform="translate(58.6640625,101)" y="0" x="0" id="text-entity-Post-ba0c2052-3a92-402d-8dd1-1cee4afc4793-attr-4-name" class="er entityLabel">createdAt</text><rect height="22" width="21.5625" y="90" x="114.6484375" class="er attributeBoxEven"/><text style="dominant-baseline: middle; font-size: 10.2px;" transform="translate(119.6484375,101)" y="0" x="0" id="text-entity-Post-ba0c2052-3a92-402d-8dd1-1cee4afc4793-attr-4-key" class="er entityLabel"/><rect height="22" width="53.6640625" y="112" x="0" class="er attributeBoxOdd"/><text style="dominant-baseline: middle; font-size: 10.2px;" transform="translate(5,123)" y="0" x="0" id="text-entity-Post-ba0c2052-3a92-402d-8dd1-1cee4afc4793-attr-5-type" class="er entityLabel">DateTime</text><rect height="22" width="60.984375" y="112" x="53.6640625" class="er attributeBoxOdd"/><text style="dominant-baseline: middle; font-size: 10.2px;" transform="translate(58.6640625,123)" y="0" x="0" id="text-entity-Post-ba0c2052-3a92-402d-8dd1-1cee4afc4793-attr-5-name" class="er entityLabel">updatedAt</text><rect height="22" width="21.5625" y="112" x="114.6484375" class="er attributeBoxOdd"/><text style="dominant-baseline: middle; font-size: 10.2px;" transform="translate(119.6484375,123)" y="0" x="0" id="text-entity-Post-ba0c2052-3a92-402d-8dd1-1cee4afc4793-attr-5-key" class="er entityLabel"/></g><g transform="translate(602.1875,309 )" id="entity-Recommended-983e0573-df53-42d5-a978-833946b6241d"><rect height="112" width="132.875" y="0" x="0" class="er entityBox"/><text style="dominant-baseline: middle; text-anchor: middle; font-size: 12px;" transform="translate(66.4375,12)" y="0" x="0" id="text-entity-Recommended-983e0573-df53-42d5-a978-833946b6241d" class="er entityLabel">Recommended</text><rect height="22" width="53.6640625" y="24" x="0" class="er attributeBoxOdd"/><text style="dominant-baseline: middle; font-size: 10.2px;" transform="translate(5,35)" y="0" x="0" id="text-entity-Recommended-983e0573-df53-42d5-a978-833946b6241d-attr-1-type" class="er entityLabel">Int</text><rect height="22" width="57.6484375" y="24" x="53.6640625" class="er attributeBoxOdd"/><text style="dominant-baseline: middle; font-size: 10.2px;" transform="translate(58.6640625,35)" y="0" x="0" id="text-entity-Recommended-983e0573-df53-42d5-a978-833946b6241d-attr-1-name" class="er entityLabel">id</text><rect height="22" width="21.5625" y="24" x="111.3125" class="er attributeBoxOdd"/><text style="dominant-baseline: middle; font-size: 10.2px;" transform="translate(116.3125,35)" y="0" x="0" id="text-entity-Recommended-983e0573-df53-42d5-a978-833946b6241d-attr-1-key" class="er entityLabel">PK</text><rect height="22" width="53.6640625" y="46" x="0" class="er attributeBoxEven"/><text style="dominant-baseline: middle; font-size: 10.2px;" transform="translate(5,57)" y="0" x="0" id="text-entity-Recommended-983e0573-df53-42d5-a978-833946b6241d-attr-2-type" class="er entityLabel">String</text><rect height="22" width="57.6484375" y="46" x="53.6640625" class="er attributeBoxEven"/><text style="dominant-baseline: middle; font-size: 10.2px;" transform="translate(58.6640625,57)" y="0" x="0" id="text-entity-Recommended-983e0573-df53-42d5-a978-833946b6241d-attr-2-name" class="er entityLabel">name</text><rect height="22" width="21.5625" y="46" x="111.3125" class="er attributeBoxEven"/><text style="dominant-baseline: middle; font-size: 10.2px;" transform="translate(116.3125,57)" y="0" x="0" id="text-entity-Recommended-983e0573-df53-42d5-a978-833946b6241d-attr-2-key" class="er entityLabel"/><rect height="22" width="53.6640625" y="68" x="0" class="er attributeBoxOdd"/><text style="dominant-baseline: middle; font-size: 10.2px;" transform="translate(5,79)" y="0" x="0" id="text-entity-Recommended-983e0573-df53-42d5-a978-833946b6241d-attr-3-type" class="er entityLabel">DateTime</text><rect height="22" width="57.6484375" y="68" x="53.6640625" class="er attributeBoxOdd"/><text style="dominant-baseline: middle; font-size: 10.2px;" transform="translate(58.6640625,79)" y="0" x="0" id="text-entity-Recommended-983e0573-df53-42d5-a978-833946b6241d-attr-3-name" class="er entityLabel">createdAt</text><rect height="22" width="21.5625" y="68" x="111.3125" class="er attributeBoxOdd"/><text style="dominant-baseline: middle; font-size: 10.2px;" transform="translate(116.3125,79)" y="0" x="0" id="text-entity-Recommended-983e0573-df53-42d5-a978-833946b6241d-attr-3-key" class="er entityLabel"/><rect height="22" width="53.6640625" y="90" x="0" class="er attributeBoxEven"/><text style="dominant-baseline: middle; font-size: 10.2px;" transform="translate(5,101)" y="0" x="0" id="text-entity-Recommended-983e0573-df53-42d5-a978-833946b6241d-attr-4-type" class="er entityLabel">DateTime</text><rect height="22" width="57.6484375" y="90" x="53.6640625" class="er attributeBoxEven"/><text style="dominant-baseline: middle; font-size: 10.2px;" transform="translate(58.6640625,101)" y="0" x="0" id="text-entity-Recommended-983e0573-df53-42d5-a978-833946b6241d-attr-4-name" class="er entityLabel">updatedAt</text><rect height="22" width="21.5625" y="90" x="111.3125" class="er attributeBoxEven"/><text style="dominant-baseline: middle; font-size: 10.2px;" transform="translate(116.3125,101)" y="0" x="0" id="text-entity-Recommended-983e0573-df53-42d5-a978-833946b6241d-attr-4-key" class="er entityLabel"/></g><rect height="14" width="63.984375" y="505.03094482421875" x="67.90413665771484" class="er relationshipLabelBox"/><text style="text-anchor: middle; dominant-baseline: middle; font-size: 12px;" y="512.0309448242188" x="99.89632415771484" id="rel1" class="er relationshipLabel">fieldOfWork</text><rect height="14" width="53.2109375" y="505.03094482421875" x="279.2481994628906" class="er relationshipLabelBox"/><text style="text-anchor: middle; dominant-baseline: middle; font-size: 12px;" y="512.0309448242188" x="305.8536682128906" id="rel2" class="er relationshipLabel">education</text><rect height="14" width="50.3359375" y="165.90614318847656" x="243.8001708984375" class="er relationshipLabelBox"/><text style="text-anchor: middle; dominant-baseline: middle; font-size: 12px;" y="172.90614318847656" x="268.9681396484375" id="rel3" class="er relationshipLabel">specialist</text><rect height="14" width="76.1171875" y="225.09390258789062" x="346.58233642578125" class="er relationshipLabelBox"/><text style="text-anchor: middle; dominant-baseline: middle; font-size: 12px;" y="232.09390258789062" x="384.64093017578125" id="rel4" class="er relationshipLabel">firstSubstance</text><rect height="14" width="91.0078125" y="225.09390258789062" x="441.35516357421875" class="er relationshipLabelBox"/><text style="text-anchor: middle; dominant-baseline: middle; font-size: 12px;" y="232.09390258789062" x="486.85906982421875" id="rel5" class="er relationshipLabel">secondSubstance</text><rect height="14" width="76.53125" y="181.802978515625" x="582.7630004882812" class="er relationshipLabelBox"/><text style="text-anchor: middle; dominant-baseline: middle; font-size: 12px;" y="188.802978515625" x="621.0286254882812" id="rel6" class="er relationshipLabel">recommended</text></svg>